<svg width="208" height="211" viewBox="0 0 208 211" fill="none" xmlns="http://www.w3.org/2000/svg">
<path d="M89.368 67.0837L87.5149 67.0024C87.6253 64.4746 88.7352 42.1884 93.6132 38.123C93.923 37.8461 94.2883 37.6387 94.6847 37.5146C95.0811 37.3904 95.4994 37.3524 95.9116 37.4031C98.8157 37.8076 101.987 42.4157 105.606 51.4907C108.184 57.952 110.042 64.3946 110.06 64.459L108.277 64.9713C108.259 64.9078 106.423 58.5431 103.879 52.167C99.3873 40.9093 96.6322 39.3776 95.6561 39.2418C95.4995 39.2248 95.3411 39.2437 95.1928 39.297C95.0445 39.3503 94.9102 39.4366 94.8002 39.5493C91.2008 42.5488 89.6586 60.442 89.368 67.0837Z" fill="black"/>
<path d="M72.9962 55.0587L71.1411 101.609L132.349 95.0114L124.783 50.0684L72.9962 55.0587Z" fill="#FFBA49"/>
<path d="M124.783 50.0684L120.28 50.5021L126.272 89.9126L71.3555 96.2358L71.1411 101.609L132.349 95.0114L124.783 50.0684Z" fill="#FFA113"/>
<path d="M157.85 130.113L155.304 129.831C155.326 129.63 157.44 109.717 150.585 102.27C149.779 101.364 148.779 100.653 147.66 100.189C146.54 99.7246 145.331 99.5202 144.121 99.5907C129.189 100.015 122.168 125.658 122.099 125.917L119.625 125.255C121.004 120.466 122.92 115.849 125.335 111.491C130.537 102.23 137.008 97.2289 144.048 97.0288C145.624 96.9479 147.199 97.2208 148.656 97.8275C150.113 98.4342 151.416 99.3593 152.47 100.535C160.113 108.841 157.946 129.249 157.85 130.113Z" fill="#FFBA49"/>
<path d="M112.428 111.851L166.458 118.263L165.62 203.997L93.4968 195.401L112.428 111.851Z" fill="#DB3022"/>
<path d="M166.458 118.263L161.107 117.627L158.501 196.955L94.5127 190.918L93.4968 195.401L165.62 203.997L166.458 118.263Z" fill="#D10505"/>
<path d="M179.999 145.509C182.46 146.025 184.804 144.057 185.235 141.109C185.694 141.893 186.153 142.678 186.612 143.464C186.181 146.411 183.835 148.38 181.378 147.864C180.919 147.078 180.459 146.294 179.999 145.509Z" fill="#FFBA49"/>
<path d="M107.332 208.563C109.793 209.079 112.137 207.11 112.568 204.163C113.027 204.946 113.486 205.731 113.945 206.517C113.515 209.464 111.169 211.434 108.711 210.918C108.252 210.132 107.792 209.347 107.332 208.563Z" fill="#9B9B9B"/>
<path d="M185.494 96.1689C186.526 98.8928 189.205 100.103 191.481 98.8672C191.199 99.7647 190.917 100.662 190.634 101.559C188.358 102.793 185.679 101.584 184.648 98.8593C184.932 97.9635 185.214 97.0667 185.494 96.1689Z" fill="#FF5C00"/>
<path d="M169.571 76.8196C169.987 73.8685 168.327 71.0744 165.864 70.5772C166.515 70.0212 167.167 69.4652 167.82 68.9094C170.282 69.4065 171.942 72.2019 171.528 75.1517C170.876 75.708 170.224 76.2639 169.571 76.8196Z" fill="#021193"/>
<path d="M21.7077 64.9101C22.123 61.9591 20.4636 59.1648 18 58.6677C18.6515 58.1116 19.3035 57.5557 19.9563 57C22.418 57.497 24.0783 60.2923 23.664 63.2423C23.0125 63.7984 22.3604 64.3543 21.7077 64.9101Z" fill="#FF5C00"/>
<path d="M72.0943 169.475C72.5097 166.523 70.8503 163.729 68.3867 163.232C69.0382 162.676 69.6902 162.12 70.3429 161.564C72.8046 162.061 74.4649 164.857 74.0506 167.807C73.3992 168.363 72.7471 168.919 72.0943 169.475Z" fill="#FF5C00"/>
<path d="M201.332 58.8891C203.776 59.506 206.173 57.6326 206.688 54.7031C207.126 55.5057 207.563 56.309 208 57.1128C207.486 60.0394 205.087 61.914 202.644 61.2988C202.206 60.4962 201.769 59.6929 201.332 58.8891Z" fill="#FFBA49"/>
<path d="M5.82079 95.1413C4.94465 92.3385 2.33935 90.9172 0 91.9681C0.330918 91.0967 0.662322 90.2242 0.994215 89.3505C3.33162 88.3008 5.93838 89.7209 6.815 92.5226C6.4841 93.3951 6.15269 94.268 5.82079 95.1413Z" fill="#FFBA49"/>
<path d="M66.5339 129.28C66.7066 132.264 68.8667 134.516 71.3577 134.308C70.8324 135.033 70.3061 135.754 69.7818 136.479C67.2898 136.685 65.1306 134.432 64.958 131.447C65.4833 130.726 66.0086 130.003 66.5339 129.28Z" fill="#DB3022"/>
<path d="M48.9287 75.0532C51.4027 74.6419 53.1295 71.905 52.7852 68.9409C53.4244 69.5197 54.0625 70.0978 54.6998 70.6752C55.043 73.6404 53.3173 76.3756 50.8432 76.7886C50.206 76.2097 49.5678 75.6312 48.9287 75.0532Z" fill="#021193"/>
<path d="M149.812 38.7055C146.604 38.8117 148.91 44.4644 145.701 44.573C145.088 43.9566 144.476 43.3403 143.862 42.7239C147.071 42.6171 144.765 36.9644 147.973 36.856C148.586 37.4723 149.199 38.0888 149.812 38.7055Z" fill="#FF5C00"/>
<path d="M155.642 187.278C152.519 186.392 153.531 192.565 150.407 191.68C149.947 190.895 149.488 190.11 149.029 189.325C152.152 190.211 151.139 184.038 154.264 184.924C154.723 185.709 155.182 186.493 155.642 187.278Z" fill="#FFBA49"/>
<path d="M62.7806 195.315C60.5751 198.11 65.542 200.157 63.3363 202.949C62.5398 203.031 61.7423 203.116 60.9458 203.197C63.1514 200.404 58.1845 198.359 60.3901 195.565C61.1876 195.483 61.9844 195.4 62.7806 195.315Z" fill="#021193"/>
<path d="M134.225 2.35469C131.085 3.15391 134.202 8.21878 131.063 9.01627C130.369 8.54138 129.671 8.06824 128.977 7.59218C132.116 6.79516 128.998 1.73212 132.138 0.932861C132.834 1.4089 133.53 1.88284 134.225 2.35469Z" fill="#DB3022"/>
<path d="M33.4438 19.0039C34.9884 22.3758 38.137 17.3395 39.6794 20.7103C39.5002 21.6436 39.3233 22.5804 39.1432 23.5142C37.6008 20.1423 34.4541 25.1802 32.9094 21.8083C33.0891 20.8722 33.2672 19.9374 33.4438 19.0039Z" fill="#9B9B9B"/>
<path d="M6.81494 151.583C7.22927 151.508 7.60411 151.29 7.87404 150.966C8.14398 150.643 8.29185 150.235 8.29185 149.813C8.29185 149.392 8.14398 148.984 7.87404 148.661C7.60411 148.337 7.22927 148.119 6.81494 148.044" fill="black"/>
<path d="M174.448 14.8658C173.098 14.8658 172 13.5501 172 11.9328C172 10.3156 173.098 9 174.448 9C175.798 9 176.896 10.3156 176.896 11.9329C176.896 13.5501 175.798 14.8658 174.448 14.8658ZM174.448 10.1634C174.019 10.2058 173.624 10.415 173.348 10.7459C173.072 11.0768 172.936 11.5031 172.971 11.9329C172.932 12.1493 172.941 12.3716 172.997 12.5842C173.053 12.7968 173.155 12.9945 173.296 13.1633C173.437 13.332 173.613 13.4678 173.812 13.561C174.011 13.6541 174.228 13.7024 174.448 13.7024C174.668 13.7024 174.885 13.6541 175.084 13.561C175.283 13.4678 175.459 13.332 175.6 13.1633C175.741 12.9945 175.843 12.7968 175.899 12.5842C175.955 12.3716 175.964 12.1493 175.925 11.9329C175.959 11.5031 175.824 11.0768 175.548 10.7459C175.272 10.415 174.877 10.2058 174.448 10.1634V10.1634Z" fill="black"/>
<path d="M31.9474 125.983C30.5976 125.983 29.4995 124.668 29.4995 123.05C29.4995 121.433 30.5976 120.117 31.9474 120.117C33.2972 120.117 34.3953 121.433 34.3953 123.05C34.3953 124.668 33.2972 125.983 31.9474 125.983ZM31.9474 121.281C31.5331 121.356 31.1582 121.574 30.8883 121.897C30.6184 122.221 30.4705 122.629 30.4705 123.05C30.4705 123.472 30.6184 123.88 30.8883 124.203C31.1582 124.526 31.5331 124.745 31.9474 124.82C32.3617 124.745 32.7366 124.526 33.0065 124.203C33.2764 123.88 33.4243 123.472 33.4243 123.05C33.4243 122.629 33.2764 122.221 33.0065 121.897C32.7366 121.574 32.3617 121.356 31.9474 121.281V121.281Z" fill="black"/>
</svg>
